# Blender 4.2.2 LTS
# www.blender.org
mtllib object_mount_plate.mtl
o Cube
v -0.040000 -0.000000 0.040000
v -0.040000 -0.005000 0.040000
v 0.040000 -0.000000 0.040000
v 0.040000 -0.005000 0.040000
v -0.040000 0.000000 -0.040000
v -0.040000 -0.005000 -0.040000
v 0.040000 0.000000 -0.040000
v 0.040000 -0.005000 -0.040000
v -0.000000 -0.005000 -0.040000
v 0.018750 -0.005000 -0.040000
v -0.018750 -0.005000 -0.040000
v -0.018750 -0.005000 -0.033650
v 0.018750 -0.005000 -0.033650
v 0.021500 0.000000 -0.033650
v 0.021447 0.000000 -0.034186
v 0.021291 0.000000 -0.034702
v 0.021037 0.000000 -0.035178
v 0.020695 0.000000 -0.035595
v 0.020278 0.000000 -0.035937
v 0.019802 0.000000 -0.036191
v 0.019286 0.000000 -0.036347
v 0.018750 0.000000 -0.036400
v 0.018214 0.000000 -0.036347
v 0.017698 0.000000 -0.036191
v 0.017222 0.000000 -0.035937
v 0.016805 0.000000 -0.035595
v 0.016463 0.000000 -0.035178
v 0.016209 0.000000 -0.034702
v 0.016053 0.000000 -0.034186
v 0.016000 0.000000 -0.033650
v 0.016053 0.000000 -0.033114
v 0.016209 0.000000 -0.032598
v 0.016463 0.000000 -0.032122
v 0.016805 0.000000 -0.031705
v 0.017222 0.000000 -0.031363
v 0.017698 0.000000 -0.031109
v 0.018214 0.000000 -0.030953
v 0.018750 0.000000 -0.030900
v 0.019286 0.000000 -0.030953
v 0.019802 0.000000 -0.031109
v 0.020278 0.000000 -0.031363
v 0.020695 0.000000 -0.031705
v 0.021037 0.000000 -0.032122
v 0.021291 0.000000 -0.032598
v 0.021447 0.000000 -0.033114
v -0.016000 0.000000 -0.033650
v 0.015581 -0.010000 -0.034280
v -0.016053 0.000000 -0.034186
v 0.016053 0.000000 -0.034186
v -0.016209 0.000000 -0.034702
v 0.015765 -0.010000 -0.034887
v -0.016463 0.000000 -0.035178
v 0.016209 0.000000 -0.034702
v -0.016805 0.000000 -0.035595
v 0.016063 -0.010000 -0.035445
v -0.017222 0.000000 -0.035937
v 0.016463 0.000000 -0.035178
v -0.017698 0.000000 -0.036191
v 0.016465 -0.010000 -0.035935
v -0.018214 0.000000 -0.036347
v 0.016805 0.000000 -0.035595
v -0.018750 0.000000 -0.036400
v 0.016955 -0.010000 -0.036337
v -0.019286 0.000000 -0.036347
v 0.017222 0.000000 -0.035937
v -0.019802 0.000000 -0.036191
v 0.017513 -0.010000 -0.036635
v -0.020278 0.000000 -0.035937
v 0.017698 0.000000 -0.036191
v -0.020695 0.000000 -0.035595
v 0.018120 -0.010000 -0.036819
v -0.021037 0.000000 -0.035178
v 0.018214 0.000000 -0.036347
v -0.021291 0.000000 -0.034702
v 0.018750 -0.010000 -0.036881
v -0.021447 0.000000 -0.034186
v 0.018750 0.000000 -0.036400
v -0.021500 0.000000 -0.033650
v 0.019380 -0.010000 -0.036819
v -0.021447 0.000000 -0.033114
v 0.019286 0.000000 -0.036347
v -0.021291 0.000000 -0.032598
v 0.019987 -0.010000 -0.036635
v -0.021037 0.000000 -0.032122
v 0.019802 0.000000 -0.036191
v -0.020695 0.000000 -0.031705
v 0.020545 -0.010000 -0.036337
v -0.020278 0.000000 -0.031363
v 0.020278 0.000000 -0.035937
v -0.019802 0.000000 -0.031109
v 0.021035 -0.010000 -0.035935
v -0.019286 0.000000 -0.030953
v 0.020695 0.000000 -0.035595
v -0.018750 0.000000 -0.030900
v 0.021437 -0.010000 -0.035445
v -0.018214 0.000000 -0.030953
v 0.021037 0.000000 -0.035178
v -0.017698 0.000000 -0.031109
v 0.021735 -0.010000 -0.034887
v -0.017222 0.000000 -0.031363
v 0.021291 0.000000 -0.034702
v -0.016805 0.000000 -0.031705
v 0.021981 -0.010000 -0.033650
v -0.016463 0.000000 -0.032122
v 0.021919 -0.010000 -0.034280
v -0.016209 0.000000 -0.032598
v 0.021447 0.000000 -0.034186
v -0.016053 0.000000 -0.033114
v 0.021500 0.000000 -0.033650
v -0.021035 -0.010000 -0.035935
v -0.020695 0.000000 -0.035595
v -0.017513 -0.010000 -0.036635
v -0.016955 -0.010000 -0.036337
v -0.020545 -0.010000 -0.036337
v -0.017222 0.000000 -0.035937
v -0.017698 0.000000 -0.036191
v -0.020278 0.000000 -0.035937
v -0.016465 -0.010000 -0.035935
v -0.019987 -0.010000 -0.036635
v -0.016805 0.000000 -0.035595
v -0.019802 0.000000 -0.036191
v -0.016063 -0.010000 -0.035445
v -0.019380 -0.010000 -0.036819
v -0.016463 0.000000 -0.035178
v -0.019286 0.000000 -0.036347
v -0.015765 -0.010000 -0.034887
v -0.018750 -0.010000 -0.036881
v -0.016209 0.000000 -0.034702
v -0.018750 0.000000 -0.036400
v -0.015581 -0.010000 -0.034280
v -0.018120 -0.010000 -0.036819
v -0.016053 0.000000 -0.034186
v -0.018214 0.000000 -0.036347
v -0.016000 0.000000 -0.033650
v -0.015519 -0.010000 -0.033650
v -0.021037 0.000000 -0.035178
v -0.021437 -0.010000 -0.035445
v -0.021291 0.000000 -0.034702
v -0.021735 -0.010000 -0.034887
v -0.021447 0.000000 -0.034186
v -0.021919 -0.010000 -0.034280
v -0.021500 0.000000 -0.033650
v -0.021981 -0.010000 -0.033650
v -0.021447 0.000000 -0.033114
v -0.021919 -0.010000 -0.033020
v -0.021291 0.000000 -0.032598
v -0.021735 -0.010000 -0.032413
v -0.021037 0.000000 -0.032122
v -0.021437 -0.010000 -0.031855
v -0.020695 0.000000 -0.031705
v -0.021035 -0.010000 -0.031365
v -0.020278 0.000000 -0.031363
v -0.020545 -0.010000 -0.030963
v -0.019802 0.000000 -0.031109
v -0.019987 -0.010000 -0.030665
v -0.019286 0.000000 -0.030953
v -0.019380 -0.010000 -0.030481
v -0.018750 0.000000 -0.030900
v -0.018750 -0.010000 -0.030419
v -0.018214 0.000000 -0.030953
v -0.018120 -0.010000 -0.030481
v -0.017698 0.000000 -0.031109
v -0.017513 -0.010000 -0.030665
v -0.017222 0.000000 -0.031363
v -0.016955 -0.010000 -0.030963
v -0.016805 0.000000 -0.031705
v -0.016465 -0.010000 -0.031365
v -0.016463 0.000000 -0.032122
v -0.016063 -0.010000 -0.031855
v -0.016209 0.000000 -0.032598
v -0.015765 -0.010000 -0.032413
v -0.016053 0.000000 -0.033114
v -0.015581 -0.010000 -0.033020
v 0.016000 0.000000 -0.033650
v 0.015519 -0.010000 -0.033650
v 0.016053 0.000000 -0.033114
v 0.015581 -0.010000 -0.033020
v 0.016209 0.000000 -0.032598
v 0.015765 -0.010000 -0.032413
v 0.016463 0.000000 -0.032122
v 0.016063 -0.010000 -0.031855
v 0.016805 0.000000 -0.031705
v 0.016465 -0.010000 -0.031365
v 0.017222 0.000000 -0.031363
v 0.016955 -0.010000 -0.030963
v 0.017698 0.000000 -0.031109
v 0.017513 -0.010000 -0.030665
v 0.018214 0.000000 -0.030953
v 0.018120 -0.010000 -0.030481
v 0.018750 0.000000 -0.030900
v 0.018750 -0.010000 -0.030419
v 0.019286 0.000000 -0.030953
v 0.019380 -0.010000 -0.030481
v 0.019802 0.000000 -0.031109
v 0.019987 -0.010000 -0.030665
v 0.020278 0.000000 -0.031363
v 0.020545 -0.010000 -0.030963
v 0.020695 0.000000 -0.031705
v 0.021035 -0.010000 -0.031365
v 0.021037 0.000000 -0.032122
v 0.021437 -0.010000 -0.031855
v 0.021291 0.000000 -0.032598
v 0.021735 -0.010000 -0.032413
v 0.021447 0.000000 -0.033114
v 0.021919 -0.010000 -0.033020
vn -0.0000 -0.0000 1.0000
vn 1.0000 -0.0000 -0.0000
vn -0.0000 -0.0000 -1.0000
vn -1.0000 -0.0000 -0.0000
vn -0.0000 1.0000 -0.0000
vn -0.0000 -1.0000 -0.0000
vn 0.9940 0.0478 -0.0979
vn -0.4714 -0.0000 -0.8819
vn -0.2546 -0.9640 -0.0772
vn 0.0067 0.9976 0.0685
vn 0.1308 0.9906 0.0397
vn 0.2546 0.9640 -0.0772
vn 0.4714 -0.0000 -0.8819
vn -0.9569 -0.0000 0.2903
vn -0.9952 -0.0000 -0.0980
vn -0.0867 -0.9906 0.1057
vn 0.4714 -0.0000 0.8819
vn 0.7730 -0.0000 0.6344
vn 0.6344 -0.0000 -0.7730
vn -0.7730 -0.0000 0.6344
vn 0.0980 -0.0000 -0.9952
vn -0.0980 -0.0000 0.9952
vn -0.0067 0.9976 0.0685
vn -0.9569 -0.0000 -0.2903
vn -0.8819 -0.0000 -0.4714
vn 0.8819 -0.0000 0.4714
vn -0.9952 -0.0000 0.0980
vn 0.1206 -0.9906 -0.0644
vn 0.1057 0.9906 -0.0867
vn 0.6344 -0.0000 0.7730
vn 0.2903 -0.0000 -0.9569
vn -0.8819 -0.0000 0.4714
vn -0.2903 -0.0000 0.9569
vn 0.2648 0.9640 -0.0261
vn -0.2903 -0.0000 -0.9569
vn 0.0200 -0.9976 0.0659
vn 0.9952 -0.0000 0.0980
vn -0.7730 -0.0000 -0.6344
vn 0.1057 0.9906 0.0867
vn 0.1206 0.9906 -0.0644
vn -0.1206 -0.9906 -0.0644
vn -0.1206 -0.9906 0.0644
vn 0.0644 0.9906 0.1206
vn -0.4714 -0.0000 0.8819
vn -0.6344 -0.0000 -0.7730
vn 0.2648 0.9640 0.0261
vn -0.0980 -0.0000 -0.9952
vn 0.0980 -0.0000 0.9952
vn -0.0867 -0.9906 -0.1057
vn 0.9952 -0.0000 -0.0980
vn 0.9569 -0.0000 0.2903
vn -0.0644 0.9906 0.1206
vn 0.9569 -0.0000 -0.2903
vn 0.2903 -0.0000 0.9569
vn 0.7730 -0.0000 -0.6344
vn -0.6344 -0.0000 0.7730
vn -0.6337 0.0478 0.7721
vn -0.2900 0.0478 -0.9558
vn -0.7721 0.0478 0.6337
vn -0.0979 0.0478 -0.9940
vn -0.8809 0.0478 0.4709
vn 0.0979 0.0478 -0.9940
vn -0.9558 0.0478 0.2900
vn 0.2900 0.0478 -0.9558
vn -0.9940 0.0478 0.0979
vn 0.4709 0.0478 -0.8809
vn -0.9940 0.0478 -0.0979
vn 0.6337 0.0478 -0.7721
vn -0.9558 0.0478 -0.2900
vn 0.7721 0.0478 -0.6337
vn -0.8809 0.0478 -0.4709
vn 0.8809 0.0478 -0.4709
vn -0.7721 0.0478 -0.6337
vn 0.9558 0.0478 -0.2900
vn -0.6337 0.0478 -0.7721
vn -0.4709 0.0478 -0.8809
vn -0.4709 0.0478 0.8809
vn -0.2899 0.0478 0.9558
vn -0.0979 0.0478 0.9940
vn 0.0979 0.0478 0.9940
vn 0.2899 0.0478 0.9558
vn 0.4709 0.0478 0.8809
vn 0.6337 0.0478 0.7721
vn 0.7721 0.0478 0.6337
vn 0.8809 0.0478 0.4709
vn 0.9558 0.0478 0.2900
vn 0.9940 0.0478 0.0979
vn 0.2899 0.0478 -0.9558
vn -0.2899 0.0478 -0.9558
vn -0.2900 0.0478 0.9558
vn 0.2900 0.0478 0.9558
vt 0.375000 0.000000
vt 0.625000 0.000000
vt 0.625000 0.250000
vt 0.375000 0.250000
vt 0.625000 0.500000
vt 0.375000 0.500000
vt 0.625000 0.750000
vt 0.375000 0.750000
vt 0.625000 1.000000
vt 0.375000 1.000000
vt 0.125000 0.500000
vt 0.125000 0.750000
vt 0.875000 0.500000
vt 0.875000 0.750000
vt 1.000000 0.500000
vt 1.000000 1.000000
vt 0.968750 1.000000
vt 0.968750 0.500000
vt 0.949553 0.116663
vt 0.971731 0.158156
vt 0.796822 0.014611
vt 0.841844 0.028269
vt 0.514612 0.296822
vt 0.510000 0.250000
vt 0.703178 0.485389
vt 0.658156 0.471731
vt 0.841844 0.471731
vt 0.796822 0.485389
vt 0.971731 0.341844
vt 0.949553 0.383337
vt 0.658156 0.028269
vt 0.703178 0.014611
vt 0.750000 0.010000
vt 0.550447 0.116663
vt 0.580294 0.080294
vt 0.550447 0.383337
vt 0.528269 0.341844
vt 0.616663 0.449553
vt 0.580294 0.419706
vt 0.919706 0.419706
vt 0.616663 0.050447
vt 0.990000 0.250000
vt 0.985388 0.296822
vt 0.514612 0.203178
vt 0.883337 0.050447
vt 0.883337 0.449553
vt 0.528269 0.158156
vt 0.750000 0.490000
vt 0.985388 0.203178
vt 0.919706 0.080294
vt 0.937500 1.000000
vt 0.937500 0.500000
vt 0.906250 1.000000
vt 0.906250 0.500000
vt 0.875000 1.000000
vt 0.843750 1.000000
vt 0.843750 0.500000
vt 0.812500 1.000000
vt 0.812500 0.500000
vt 0.781250 1.000000
vt 0.781250 0.500000
vt 0.750000 1.000000
vt 0.750000 0.500000
vt 0.718750 1.000000
vt 0.718750 0.500000
vt 0.687500 1.000000
vt 0.687500 0.500000
vt 0.656250 1.000000
vt 0.656250 0.500000
vt 0.593750 1.000000
vt 0.593750 0.500000
vt 0.562500 1.000000
vt 0.562500 0.500000
vt 0.531250 1.000000
vt 0.531250 0.500000
vt 0.500000 1.000000
vt 0.500000 0.500000
vt 0.468750 1.000000
vt 0.468750 0.500000
vt 0.437500 1.000000
vt 0.437500 0.500000
vt 0.406250 1.000000
vt 0.406250 0.500000
vt 0.343750 1.000000
vt 0.343750 0.500000
vt 0.312500 1.000000
vt 0.312500 0.500000
vt 0.281250 1.000000
vt 0.281250 0.500000
vt 0.250000 1.000000
vt 0.250000 0.500000
vt 0.218750 1.000000
vt 0.218750 0.500000
vt 0.187500 1.000000
vt 0.187500 0.500000
vt 0.156250 1.000000
vt 0.156250 0.500000
vt 0.125000 1.000000
vt 0.093750 1.000000
vt 0.093750 0.500000
vt 0.062500 1.000000
vt 0.062500 0.500000
vt 0.031250 1.000000
vt 0.031250 0.500000
vt 0.000000 1.000000
vt 0.000000 0.500000
vt 0.050447 0.116663
vt 0.080295 0.080294
vt 0.116663 0.050447
vt 0.158156 0.028269
vt 0.203178 0.014611
vt 0.250000 0.010000
vt 0.296822 0.014611
vt 0.341844 0.028269
vt 0.383337 0.050447
vt 0.419705 0.080294
vt 0.449553 0.116663
vt 0.471731 0.158156
vt 0.485388 0.203178
vt 0.490000 0.250000
vt 0.485388 0.296822
vt 0.471731 0.341844
vt 0.449553 0.383337
vt 0.419705 0.419706
vt 0.383337 0.449553
vt 0.341844 0.471731
vt 0.296822 0.485389
vt 0.250000 0.490000
vt 0.203178 0.485389
vt 0.158156 0.471731
vt 0.116663 0.449553
vt 0.080295 0.419706
vt 0.050447 0.383337
vt 0.028269 0.341844
vt 0.014612 0.296822
vt 0.010000 0.250000
vt 0.014612 0.203178
vt 0.028269 0.158156
s 0
f 1/1/1 2/2/1 4/3/1 3/4/1
f 3/4/2 4/3/2 8/5/2 7/6/2
f 7/6/3 8/5/3 6/7/3 5/8/3
f 5/8/4 6/7/4 2/9/4 1/10/4
f 3/11/5 7/6/5 5/8/5 1/12/5
f 8/5/6 4/13/6 2/14/6 6/7/6
f 109/15/7 103/16/7 105/17/7 107/18/7
f 68/19/8 66/20/8 121/20/8 117/19/8
f 29/21/9 28/22/9 53/22/9 49/21/9
f 96/23/10 94/24/10 158/24/10 160/23/10
f 45/25/11 44/26/11 202/26/11 204/25/11
f 16/27/12 15/28/12 107/28/12 101/27/12
f 58/29/13 56/30/13 115/30/13 116/29/13
f 32/31/14 31/32/14 176/32/14 178/31/14
f 78/33/15 76/21/15 140/21/15 142/33/15
f 35/34/16 34/35/16 182/35/16 184/34/16
f 41/36/17 40/37/17 194/37/17 196/36/17
f 104/38/18 102/39/18 166/39/18 168/38/18
f 19/30/19 18/40/19 93/40/19 89/30/19
f 86/35/20 84/41/20 148/41/20 150/35/20
f 22/42/21 21/43/21 81/43/21 77/42/21
f 38/24/22 37/44/22 188/44/22 190/24/22
f 94/24/23 92/44/23 156/44/23 158/24/23
f 25/19/8 24/20/8 69/20/8 65/19/8
f 76/21/24 74/22/24 138/22/24 140/21/24
f 28/22/25 27/45/25 57/45/25 53/22/25
f 44/26/26 43/38/26 200/38/26 202/26/26
f 62/42/21 60/43/21 133/43/21 129/42/21
f 31/32/27 30/33/27 174/33/27 176/32/27
f 52/46/28 50/27/28 128/27/28 124/46/28
f 18/40/29 17/46/29 97/46/29 93/40/29
f 34/35/20 33/41/20 180/41/20 182/35/20
f 102/39/30 100/36/30 164/36/30 166/39/30
f 21/43/31 20/29/31 85/29/31 81/43/31
f 84/41/32 82/31/32 146/31/32 148/41/32
f 37/44/33 36/47/33 186/47/33 188/44/33
f 15/28/34 14/48/34 109/48/34 107/28/34
f 66/20/35 64/49/35 125/49/35 121/20/35
f 40/37/36 39/23/36 192/23/36 194/37/36
f 46/48/37 108/25/37 172/25/37 134/48/37
f 24/20/35 23/49/35 73/49/35 69/20/35
f 27/45/38 26/50/38 61/50/38 57/45/38
f 56/30/19 54/40/19 120/40/19 115/30/19
f 43/38/39 42/39/39 198/39/39 200/38/39
f 92/44/33 90/47/33 154/47/33 156/44/33
f 30/33/15 29/21/15 49/21/15 174/33/15
f 17/46/40 16/27/40 101/27/40 97/46/40
f 74/22/41 72/45/41 136/45/41 138/22/41
f 33/41/42 32/31/42 178/31/42 180/41/42
f 100/36/43 98/37/43 162/37/43 164/36/43
f 20/29/13 19/30/13 89/30/13 85/29/13
f 36/47/44 35/34/44 184/34/44 186/47/44
f 70/50/45 68/19/45 117/19/45 111/50/45
f 14/48/46 45/25/46 204/25/46 109/48/46
f 82/31/14 80/32/14 144/32/14 146/31/14
f 23/49/47 22/42/47 77/42/47 73/49/47
f 39/23/48 38/24/48 190/24/48 192/23/48
f 26/50/49 25/19/49 65/19/49 61/50/49
f 42/39/30 41/36/30 196/36/30 198/39/30
f 14/48/5 15/28/5 16/27/5 17/46/5 18/40/5 19/30/5 20/29/5 21/43/5 22/42/5 23/49/5 24/20/5 25/19/5 26/50/5 27/45/5 28/22/5 29/21/5 30/33/5 31/32/5 32/31/5 33/41/5 34/35/5 35/34/5 36/47/5 37/44/5 38/24/5 39/23/5 40/37/5 41/36/5 42/39/5 43/38/5 44/26/5 45/25/5
f 48/28/50 46/48/50 134/48/50 132/28/50
f 108/25/51 106/26/51 170/26/51 172/25/51
f 90/47/52 88/34/52 152/34/52 154/47/52
f 72/45/38 70/50/38 111/50/38 136/45/38
f 60/43/31 58/29/31 116/29/31 133/43/31
f 50/27/53 48/28/53 132/28/53 128/27/53
f 98/37/54 96/23/54 160/23/54 162/37/54
f 80/32/27 78/33/27 142/33/27 144/32/27
f 64/49/47 62/42/47 129/42/47 125/49/47
f 66/20/5 68/19/5 70/50/5 72/45/5 74/22/5 76/21/5 78/33/5 80/32/5 82/31/5 84/41/5 86/35/5 88/34/5 90/47/5 92/44/5 94/24/5 96/23/5 98/37/5 100/36/5 102/39/5 104/38/5 106/26/5 108/25/5 46/48/5 48/28/5 50/27/5 52/46/5 54/40/5 56/30/5 58/29/5 60/43/5 62/42/5 64/49/5
f 54/40/55 52/46/55 124/46/55 120/40/55
f 106/26/26 104/38/26 168/38/26 170/26/26
f 88/34/56 86/35/56 150/35/56 152/34/56
f 150/15/57 151/16/57 153/17/57 152/18/57
f 125/18/58 123/17/58 119/51/58 121/52/58
f 148/52/59 149/51/59 151/53/59 150/54/59
f 129/54/60 127/53/60 123/55/60 125/13/60
f 146/13/61 147/55/61 149/56/61 148/57/61
f 133/57/62 131/56/62 127/58/62 129/59/62
f 144/59/63 145/58/63 147/60/63 146/61/63
f 116/61/64 112/60/64 131/62/64 133/63/64
f 142/63/65 143/62/65 145/64/65 144/65/65
f 115/65/66 113/64/66 112/66/66 116/67/66
f 140/67/67 141/66/67 143/68/67 142/69/67
f 120/69/68 118/68/68 113/9/68 115/5/68
f 138/5/69 139/9/69 141/70/69 140/71/69
f 124/71/70 122/70/70 118/72/70 120/73/70
f 136/73/71 137/72/71 139/74/71 138/75/71
f 128/75/72 126/74/72 122/76/72 124/77/72
f 111/77/73 110/76/73 137/78/73 136/79/73
f 132/79/74 130/78/74 126/80/74 128/81/74
f 117/81/75 114/80/75 110/82/75 111/83/75
f 134/83/7 135/82/7 130/10/7 132/6/7
f 121/6/76 119/10/76 114/84/76 117/85/76
f 152/85/77 153/84/77 155/86/77 154/87/77
f 154/87/78 155/86/78 157/88/78 156/89/78
f 156/89/79 157/88/79 159/90/79 158/91/79
f 158/91/80 159/90/80 161/92/80 160/93/80
f 160/93/81 161/92/81 163/94/81 162/95/81
f 162/95/82 163/94/82 165/96/82 164/97/82
f 164/97/83 165/96/83 167/98/83 166/11/83
f 166/11/84 167/98/84 169/99/84 168/100/84
f 168/100/85 169/99/85 171/101/85 170/102/85
f 170/102/86 171/101/86 173/103/86 172/104/86
f 172/104/87 173/103/87 135/105/87 134/106/87
f 153/107/6 151/108/6 149/109/6 147/110/6 145/111/6 143/112/6 141/113/6 139/114/6 137/115/6 110/116/6 114/117/6 119/118/6 123/119/6 127/120/6 131/121/6 112/122/6 113/123/6 118/124/6 122/125/6 126/126/6 130/127/6 135/128/6 173/129/6 171/130/6 169/131/6 167/132/6 165/133/6 163/134/6 161/135/6 159/136/6 157/137/6 155/138/6
f 107/18/74 105/17/74 99/51/74 101/52/74
f 101/52/72 99/51/72 95/53/72 97/54/72
f 97/54/70 95/53/70 91/55/70 93/13/70
f 93/13/68 91/55/68 87/56/68 89/57/68
f 89/57/66 87/56/66 83/58/66 85/59/66
f 85/59/88 83/58/88 79/60/88 81/61/88
f 81/61/62 79/60/62 75/62/62 77/63/62
f 77/63/60 75/62/60 71/64/60 73/65/60
f 73/65/89 71/64/89 67/66/89 69/67/89
f 69/67/76 67/66/76 63/68/76 65/69/76
f 65/69/75 63/68/75 59/9/75 61/5/75
f 61/5/73 59/9/73 55/70/73 57/71/73
f 57/71/71 55/70/71 51/72/71 53/73/71
f 53/73/69 51/72/69 47/74/69 49/75/69
f 49/75/67 47/74/67 175/76/67 174/77/67
f 174/77/65 175/76/65 177/78/65 176/79/65
f 176/79/63 177/78/63 179/80/63 178/81/63
f 178/81/61 179/80/61 181/82/61 180/83/61
f 180/83/59 181/82/59 183/10/59 182/6/59
f 182/6/57 183/10/57 185/84/57 184/85/57
f 184/85/77 185/84/77 187/86/77 186/87/77
f 186/87/90 187/86/90 189/88/90 188/89/90
f 188/89/79 189/88/79 191/90/79 190/91/79
f 190/91/80 191/90/80 193/92/80 192/93/80
f 192/93/91 193/92/91 195/94/91 194/95/91
f 194/95/82 195/94/82 197/96/82 196/97/82
f 196/97/83 197/96/83 199/98/83 198/11/83
f 198/11/84 199/98/84 201/99/84 200/100/84
f 200/100/85 201/99/85 203/101/85 202/102/85
f 105/127/6 103/128/6 205/129/6 203/130/6 201/131/6 199/132/6 197/133/6 195/134/6 193/135/6 191/136/6 189/137/6 187/138/6 185/107/6 183/108/6 181/109/6 179/110/6 177/111/6 175/112/6 47/113/6 51/114/6 55/115/6 59/116/6 63/117/6 67/118/6 71/119/6 75/120/6 79/121/6 83/122/6 87/123/6 91/124/6 95/125/6 99/126/6
f 202/102/86 203/101/86 205/103/86 204/104/86
f 204/104/87 205/103/87 103/105/87 109/106/87
