# Blender 4.2.2 LTS
# www.blender.org
o Plane
v -0.040000 -0.005000 0.040000
v -0.040000 -0.005000 -0.040000
v 0.040000 -0.005000 0.040000
v 0.040000 -0.005000 -0.040000
v -0.000000 -0.005000 -0.040000
v -0.000000 -0.005000 -0.036250
v -0.017500 -0.005000 -0.036250
v 0.017500 -0.005000 -0.036250
v 0.019500 -0.001250 -0.036250
v 0.019500 -0.008750 -0.036250
v 0.019462 -0.001250 -0.036640
v 0.019462 -0.008750 -0.036640
v 0.019348 -0.001250 -0.037015
v 0.019348 -0.008750 -0.037015
v 0.019163 -0.001250 -0.037361
v 0.019163 -0.008750 -0.037361
v 0.018914 -0.001250 -0.037664
v 0.018914 -0.008750 -0.037664
v 0.018611 -0.001250 -0.037913
v 0.018611 -0.008750 -0.037913
v 0.018265 -0.001250 -0.038098
v 0.018265 -0.008750 -0.038098
v 0.017890 -0.001250 -0.038212
v 0.017890 -0.008750 -0.038212
v 0.017500 -0.001250 -0.038250
v 0.017500 -0.008750 -0.038250
v 0.017110 -0.001250 -0.038212
v 0.017110 -0.008750 -0.038212
v 0.016735 -0.001250 -0.038098
v 0.016735 -0.008750 -0.038098
v 0.016389 -0.001250 -0.037913
v 0.016389 -0.008750 -0.037913
v 0.016086 -0.001250 -0.037664
v 0.016086 -0.008750 -0.037664
v 0.015837 -0.001250 -0.037361
v 0.015837 -0.008750 -0.037361
v 0.015652 -0.001250 -0.037015
v 0.015652 -0.008750 -0.037015
v 0.015538 -0.001250 -0.036640
v 0.015538 -0.008750 -0.036640
v 0.015500 -0.001250 -0.036250
v 0.015500 -0.008750 -0.036250
v 0.015538 -0.001250 -0.035860
v 0.015538 -0.008750 -0.035860
v 0.015652 -0.001250 -0.035485
v 0.015652 -0.008750 -0.035485
v 0.015837 -0.001250 -0.035139
v 0.015837 -0.008750 -0.035139
v 0.016086 -0.001250 -0.034836
v 0.016086 -0.008750 -0.034836
v 0.016389 -0.001250 -0.034587
v 0.016389 -0.008750 -0.034587
v 0.016735 -0.001250 -0.034402
v 0.016735 -0.008750 -0.034402
v 0.017110 -0.001250 -0.034288
v 0.017110 -0.008750 -0.034288
v 0.017500 -0.001250 -0.034250
v 0.017500 -0.008750 -0.034250
v 0.017890 -0.001250 -0.034288
v 0.017890 -0.008750 -0.034288
v 0.018265 -0.001250 -0.034402
v 0.018265 -0.008750 -0.034402
v 0.018611 -0.001250 -0.034587
v 0.018611 -0.008750 -0.034587
v 0.018914 -0.001250 -0.034836
v 0.018914 -0.008750 -0.034836
v 0.019163 -0.001250 -0.035139
v 0.019163 -0.008750 -0.035139
v 0.019348 -0.001250 -0.035485
v 0.019348 -0.008750 -0.035485
v 0.019462 -0.001250 -0.035860
v 0.019462 -0.008750 -0.035860
v -0.015500 -0.001250 -0.036250
v -0.015500 -0.008750 -0.036250
v -0.015538 -0.001250 -0.036640
v -0.015538 -0.008750 -0.036640
v -0.015652 -0.001250 -0.037015
v -0.015652 -0.008750 -0.037015
v -0.015837 -0.001250 -0.037361
v -0.015837 -0.008750 -0.037361
v -0.016086 -0.001250 -0.037664
v -0.016086 -0.008750 -0.037664
v -0.016389 -0.001250 -0.037913
v -0.016389 -0.008750 -0.037913
v -0.016735 -0.001250 -0.038098
v -0.016735 -0.008750 -0.038098
v -0.017110 -0.001250 -0.038212
v -0.017110 -0.008750 -0.038212
v -0.017500 -0.001250 -0.038250
v -0.017500 -0.008750 -0.038250
v -0.017890 -0.001250 -0.038212
v -0.017890 -0.008750 -0.038212
v -0.018265 -0.001250 -0.038098
v -0.018265 -0.008750 -0.038098
v -0.018611 -0.001250 -0.037913
v -0.018611 -0.008750 -0.037913
v -0.018914 -0.001250 -0.037664
v -0.018914 -0.008750 -0.037664
v -0.019163 -0.001250 -0.037361
v -0.019163 -0.008750 -0.037361
v -0.019348 -0.001250 -0.037015
v -0.019348 -0.008750 -0.037015
v -0.019462 -0.001250 -0.036640
v -0.019462 -0.008750 -0.036640
v -0.019500 -0.001250 -0.036250
v -0.019500 -0.008750 -0.036250
v -0.019462 -0.001250 -0.035860
v -0.019462 -0.008750 -0.035860
v -0.019348 -0.001250 -0.035485
v -0.019348 -0.008750 -0.035485
v -0.019163 -0.001250 -0.035139
v -0.019163 -0.008750 -0.035139
v -0.018914 -0.001250 -0.034836
v -0.018914 -0.008750 -0.034836
v -0.018611 -0.001250 -0.034587
v -0.018611 -0.008750 -0.034587
v -0.018265 -0.001250 -0.034402
v -0.018265 -0.008750 -0.034402
v -0.017890 -0.001250 -0.034288
v -0.017890 -0.008750 -0.034288
v -0.017500 -0.001250 -0.034250
v -0.017500 -0.008750 -0.034250
v -0.017110 -0.001250 -0.034288
v -0.017110 -0.008750 -0.034288
v -0.016735 -0.001250 -0.034402
v -0.016735 -0.008750 -0.034402
v -0.016389 -0.001250 -0.034587
v -0.016389 -0.008750 -0.034587
v -0.016086 -0.001250 -0.034836
v -0.016086 -0.008750 -0.034836
v -0.015837 -0.001250 -0.035139
v -0.015837 -0.008750 -0.035139
v -0.015652 -0.001250 -0.035485
v -0.015652 -0.008750 -0.035485
v -0.015538 -0.001250 -0.035860
v -0.015538 -0.008750 -0.035860
v -0.040000 -0.000000 0.040000
v -0.040000 0.000000 -0.040000
v 0.040000 -0.000000 0.040000
v 0.040000 0.000000 -0.040000
v -0.000000 0.000000 -0.040000
v -0.000000 -0.004317 -0.031297
v -0.015343 -0.004384 -0.031782
v 0.015343 -0.004384 -0.031782
v 0.015861 -0.004679 -0.036250
v 0.015861 -0.005321 -0.036250
v 0.015892 -0.004679 -0.035930
v 0.015892 -0.005321 -0.035930
v 0.015985 -0.004679 -0.035623
v 0.015985 -0.005321 -0.035623
v 0.016137 -0.004679 -0.035339
v 0.016137 -0.005321 -0.035339
v 0.016341 -0.004679 -0.035091
v 0.016341 -0.005321 -0.035091
v 0.016589 -0.004679 -0.034887
v 0.016589 -0.005321 -0.034887
v 0.016873 -0.004679 -0.034735
v 0.016873 -0.005321 -0.034735
v 0.017180 -0.004679 -0.034642
v 0.017180 -0.005321 -0.034642
v 0.017500 -0.004679 -0.034611
v 0.017500 -0.005321 -0.034611
v 0.017820 -0.004679 -0.034642
v 0.017820 -0.005321 -0.034642
v 0.018127 -0.004679 -0.034735
v 0.018127 -0.005321 -0.034735
v 0.018411 -0.004679 -0.034887
v 0.018411 -0.005321 -0.034887
v 0.018659 -0.004679 -0.035091
v 0.018659 -0.005321 -0.035091
v 0.018863 -0.004679 -0.035339
v 0.018863 -0.005321 -0.035339
v 0.019015 -0.004679 -0.035623
v 0.019015 -0.005321 -0.035623
v 0.019108 -0.004679 -0.035930
v 0.019108 -0.005321 -0.035930
v 0.019139 -0.004679 -0.036250
v 0.019139 -0.005321 -0.036250
v 0.019108 -0.004679 -0.036570
v 0.019108 -0.005321 -0.036570
v 0.019015 -0.004679 -0.036877
v 0.019015 -0.005321 -0.036877
v 0.018863 -0.004679 -0.037161
v 0.018863 -0.005321 -0.037161
v 0.018659 -0.004679 -0.037409
v 0.018659 -0.005321 -0.037409
v 0.018411 -0.004679 -0.037613
v 0.018411 -0.005321 -0.037613
v 0.018127 -0.004679 -0.037765
v 0.018127 -0.005321 -0.037765
v 0.017820 -0.004679 -0.037858
v 0.017820 -0.005321 -0.037858
v 0.017500 -0.004679 -0.037889
v 0.017500 -0.005321 -0.037889
v 0.017180 -0.004679 -0.037858
v 0.017180 -0.005321 -0.037858
v 0.016873 -0.004679 -0.037765
v 0.016873 -0.005321 -0.037765
v 0.016589 -0.004679 -0.037613
v 0.016589 -0.005321 -0.037613
v 0.016341 -0.004679 -0.037409
v 0.016341 -0.005321 -0.037409
v 0.016137 -0.004679 -0.037161
v 0.016137 -0.005321 -0.037161
v 0.015985 -0.004679 -0.036877
v 0.015985 -0.005321 -0.036877
v 0.015892 -0.004679 -0.036570
v 0.015892 -0.005321 -0.036570
v -0.019139 -0.004679 -0.036250
v -0.019139 -0.005321 -0.036250
v -0.019108 -0.004679 -0.035930
v -0.019108 -0.005321 -0.035930
v -0.019015 -0.004679 -0.035623
v -0.019015 -0.005321 -0.035623
v -0.018863 -0.004679 -0.035339
v -0.018863 -0.005321 -0.035339
v -0.018659 -0.004679 -0.035091
v -0.018659 -0.005321 -0.035091
v -0.018411 -0.004679 -0.034887
v -0.018411 -0.005321 -0.034887
v -0.018127 -0.004679 -0.034735
v -0.018127 -0.005321 -0.034735
v -0.017820 -0.004679 -0.034642
v -0.017820 -0.005321 -0.034642
v -0.017500 -0.004679 -0.034611
v -0.017500 -0.005321 -0.034611
v -0.017180 -0.004679 -0.034642
v -0.017180 -0.005321 -0.034642
v -0.016873 -0.004679 -0.034735
v -0.016873 -0.005321 -0.034735
v -0.016589 -0.004679 -0.034887
v -0.016589 -0.005321 -0.034887
v -0.016341 -0.004679 -0.035091
v -0.016341 -0.005321 -0.035091
v -0.016137 -0.004679 -0.035339
v -0.016137 -0.005321 -0.035339
v -0.015985 -0.004679 -0.035623
v -0.015985 -0.005321 -0.035623
v -0.015892 -0.004679 -0.035930
v -0.015892 -0.005321 -0.035930
v -0.015861 -0.004679 -0.036250
v -0.015861 -0.005321 -0.036250
v -0.015892 -0.004679 -0.036570
v -0.015892 -0.005321 -0.036570
v -0.015985 -0.004679 -0.036877
v -0.015985 -0.005321 -0.036877
v -0.016137 -0.004679 -0.037161
v -0.016137 -0.005321 -0.037161
v -0.016341 -0.004679 -0.037409
v -0.016341 -0.005321 -0.037409
v -0.016589 -0.004679 -0.037613
v -0.016589 -0.005321 -0.037613
v -0.016873 -0.004679 -0.037765
v -0.016873 -0.005321 -0.037765
v -0.017180 -0.004679 -0.037858
v -0.017180 -0.005321 -0.037858
v -0.017500 -0.004679 -0.037889
v -0.017500 -0.005321 -0.037889
v -0.017820 -0.004679 -0.037858
v -0.017820 -0.005321 -0.037858
v -0.018127 -0.004679 -0.037765
v -0.018127 -0.005321 -0.037765
v -0.018411 -0.004679 -0.037613
v -0.018411 -0.005321 -0.037613
v -0.018659 -0.004679 -0.037409
v -0.018659 -0.005321 -0.037409
v -0.018863 -0.004679 -0.037161
v -0.018863 -0.005321 -0.037161
v -0.019015 -0.004679 -0.036877
v -0.019015 -0.005321 -0.036877
v -0.019108 -0.004679 -0.036570
v -0.019108 -0.005321 -0.036570
vn -0.0000 -1.0000 -0.0000
vn 0.9952 -0.0000 -0.0980
vn 0.9569 -0.0000 -0.2903
vn 0.8819 -0.0000 -0.4714
vn 0.7730 -0.0000 -0.6344
vn 0.6344 -0.0000 -0.7730
vn 0.4714 -0.0000 -0.8819
vn 0.2903 -0.0000 -0.9569
vn 0.0980 -0.0000 -0.9952
vn -0.0980 -0.0000 -0.9952
vn -0.2903 -0.0000 -0.9569
vn -0.4714 -0.0000 -0.8819
vn -0.6344 -0.0000 -0.7730
vn -0.7730 -0.0000 -0.6344
vn -0.8819 -0.0000 -0.4714
vn -0.9569 -0.0000 -0.2903
vn -0.9952 -0.0000 -0.0980
vn -0.9952 -0.0000 0.0980
vn -0.9569 -0.0000 0.2903
vn -0.8819 -0.0000 0.4714
vn -0.7730 -0.0000 0.6344
vn -0.6344 -0.0000 0.7730
vn -0.4714 -0.0000 0.8819
vn -0.2903 -0.0000 0.9569
vn -0.0980 -0.0000 0.9952
vn 0.0980 -0.0000 0.9952
vn 0.2903 -0.0000 0.9569
vn 0.4714 -0.0000 0.8819
vn 0.6344 -0.0000 0.7730
vn 0.7730 -0.0000 0.6344
vn 0.8819 -0.0000 0.4714
vn 0.9569 -0.0000 0.2903
vn 0.9952 -0.0000 0.0980
vn -0.0000 1.0000 -0.0000
vn -0.0000 -0.0000 1.0000
vn -1.0000 -0.0000 -0.0000
vn -0.0000 -0.0000 -1.0000
vn 1.0000 -0.0000 -0.0000
vt 0.000000 0.000000
vt 1.000000 0.000000
vt 1.000000 0.500000
vt 1.000000 1.000000
vt 0.000000 1.000000
vt 0.968750 1.000000
vt 0.968750 0.500000
vt 0.937500 1.000000
vt 0.937500 0.500000
vt 0.906250 1.000000
vt 0.906250 0.500000
vt 0.875000 1.000000
vt 0.875000 0.500000
vt 0.843750 1.000000
vt 0.843750 0.500000
vt 0.812500 1.000000
vt 0.812500 0.500000
vt 0.781250 1.000000
vt 0.781250 0.500000
vt 0.750000 1.000000
vt 0.750000 0.500000
vt 0.718750 1.000000
vt 0.718750 0.500000
vt 0.687500 1.000000
vt 0.687500 0.500000
vt 0.656250 1.000000
vt 0.656250 0.500000
vt 0.625000 1.000000
vt 0.625000 0.500000
vt 0.593750 1.000000
vt 0.593750 0.500000
vt 0.562500 1.000000
vt 0.562500 0.500000
vt 0.531250 1.000000
vt 0.531250 0.500000
vt 0.500000 1.000000
vt 0.500000 0.500000
vt 0.468750 1.000000
vt 0.468750 0.500000
vt 0.437500 1.000000
vt 0.437500 0.500000
vt 0.406250 1.000000
vt 0.406250 0.500000
vt 0.375000 1.000000
vt 0.375000 0.500000
vt 0.343750 1.000000
vt 0.343750 0.500000
vt 0.312500 1.000000
vt 0.312500 0.500000
vt 0.281250 1.000000
vt 0.281250 0.500000
vt 0.250000 1.000000
vt 0.250000 0.500000
vt 0.218750 1.000000
vt 0.218750 0.500000
vt 0.187500 1.000000
vt 0.187500 0.500000
vt 0.156250 1.000000
vt 0.156250 0.500000
vt 0.125000 1.000000
vt 0.125000 0.500000
vt 0.093750 1.000000
vt 0.093750 0.500000
vt 0.062500 1.000000
vt 0.062500 0.500000
vt 0.296822 0.485388
vt 0.250000 0.490000
vt 0.203178 0.485388
vt 0.158156 0.471731
vt 0.116663 0.449553
vt 0.080294 0.419706
vt 0.050447 0.383337
vt 0.028269 0.341844
vt 0.014612 0.296822
vt 0.010000 0.250000
vt 0.014612 0.203178
vt 0.028269 0.158156
vt 0.050447 0.116663
vt 0.080294 0.080294
vt 0.116663 0.050447
vt 0.158156 0.028269
vt 0.203178 0.014612
vt 0.250000 0.010000
vt 0.296822 0.014612
vt 0.341844 0.028269
vt 0.383337 0.050447
vt 0.419706 0.080294
vt 0.449553 0.116663
vt 0.471731 0.158156
vt 0.485388 0.203178
vt 0.490000 0.250000
vt 0.485388 0.296822
vt 0.471731 0.341844
vt 0.449553 0.383337
vt 0.419706 0.419706
vt 0.383337 0.449553
vt 0.341844 0.471731
vt 0.031250 1.000000
vt 0.031250 0.500000
vt 0.000000 0.500000
vt 0.750000 0.490000
vt 0.796822 0.485388
vt 0.841844 0.471731
vt 0.883337 0.449553
vt 0.919706 0.419706
vt 0.949553 0.383337
vt 0.971731 0.341844
vt 0.985388 0.296822
vt 0.990000 0.250000
vt 0.985388 0.203178
vt 0.971731 0.158156
vt 0.949553 0.116663
vt 0.919706 0.080294
vt 0.883337 0.050447
vt 0.841844 0.028269
vt 0.796822 0.014612
vt 0.750000 0.010000
vt 0.703178 0.014612
vt 0.658156 0.028269
vt 0.616663 0.050447
vt 0.580294 0.080294
vt 0.550447 0.116663
vt 0.528269 0.158156
vt 0.514612 0.203178
vt 0.510000 0.250000
vt 0.514612 0.296822
vt 0.528269 0.341844
vt 0.550447 0.383337
vt 0.580294 0.419706
vt 0.616663 0.449553
vt 0.658156 0.471731
vt 0.703178 0.485388
s 0
f 1/1/1 2/2/1 5/3/1 4/4/1 3/5/1
f 9/3/2 10/4/2 12/6/2 11/7/2
f 11/7/3 12/6/3 14/8/3 13/9/3
f 13/9/4 14/8/4 16/10/4 15/11/4
f 15/11/5 16/10/5 18/12/5 17/13/5
f 17/13/6 18/12/6 20/14/6 19/15/6
f 19/15/7 20/14/7 22/16/7 21/17/7
f 21/17/8 22/16/8 24/18/8 23/19/8
f 23/19/9 24/18/9 26/20/9 25/21/9
f 25/21/10 26/20/10 28/22/10 27/23/10
f 27/23/11 28/22/11 30/24/11 29/25/11
f 29/25/12 30/24/12 32/26/12 31/27/12
f 31/27/13 32/26/13 34/28/13 33/29/13
f 33/29/14 34/28/14 36/30/14 35/31/14
f 35/31/15 36/30/15 38/32/15 37/33/15
f 37/33/16 38/32/16 40/34/16 39/35/16
f 39/35/17 40/34/17 42/36/17 41/37/17
f 41/37/18 42/36/18 44/38/18 43/39/18
f 43/39/19 44/38/19 46/40/19 45/41/19
f 45/41/20 46/40/20 48/42/20 47/43/20
f 47/43/21 48/42/21 50/44/21 49/45/21
f 49/45/22 50/44/22 52/46/22 51/47/22
f 51/47/23 52/46/23 54/48/23 53/49/23
f 53/49/24 54/48/24 56/50/24 55/51/24
f 55/51/25 56/50/25 58/52/25 57/53/25
f 57/53/26 58/52/26 60/54/26 59/55/26
f 59/55/27 60/54/27 62/56/27 61/57/27
f 61/57/28 62/56/28 64/58/28 63/59/28
f 63/59/29 64/58/29 66/60/29 65/61/29
f 65/61/30 66/60/30 68/62/30 67/63/30
f 67/63/31 68/62/31 70/64/31 69/65/31
f 12/66/1 10/67/1 72/68/1 70/69/1 68/70/1 66/71/1 64/72/1 62/73/1 60/74/1 58/75/1 56/76/1 54/77/1 52/78/1 50/79/1 48/80/1 46/81/1 44/82/1 42/83/1 40/84/1 38/85/1 36/86/1 34/87/1 32/88/1 30/89/1 28/90/1 26/91/1 24/92/1 22/93/1 20/94/1 18/95/1 16/96/1 14/97/1
f 69/65/32 70/64/32 72/98/32 71/99/32
f 71/99/33 72/98/33 10/5/33 9/100/33
f 9/101/34 11/102/34 13/103/34 15/104/34 17/105/34 19/106/34 21/107/34 23/108/34 25/109/34 27/110/34 29/111/34 31/112/34 33/113/34 35/114/34 37/115/34 39/116/34 41/117/34 43/118/34 45/119/34 47/120/34 49/121/34 51/122/34 53/123/34 55/124/34 57/125/34 59/126/34 61/127/34 63/128/34 65/129/34 67/130/34 69/131/34 71/132/34
f 73/3/2 74/4/2 76/6/2 75/7/2
f 75/7/3 76/6/3 78/8/3 77/9/3
f 77/9/4 78/8/4 80/10/4 79/11/4
f 79/11/5 80/10/5 82/12/5 81/13/5
f 81/13/6 82/12/6 84/14/6 83/15/6
f 83/15/7 84/14/7 86/16/7 85/17/7
f 85/17/8 86/16/8 88/18/8 87/19/8
f 87/19/9 88/18/9 90/20/9 89/21/9
f 89/21/10 90/20/10 92/22/10 91/23/10
f 91/23/11 92/22/11 94/24/11 93/25/11
f 93/25/12 94/24/12 96/26/12 95/27/12
f 95/27/13 96/26/13 98/28/13 97/29/13
f 97/29/14 98/28/14 100/30/14 99/31/14
f 99/31/15 100/30/15 102/32/15 101/33/15
f 101/33/16 102/32/16 104/34/16 103/35/16
f 103/35/17 104/34/17 106/36/17 105/37/17
f 105/37/18 106/36/18 108/38/18 107/39/18
f 107/39/19 108/38/19 110/40/19 109/41/19
f 109/41/20 110/40/20 112/42/20 111/43/20
f 111/43/21 112/42/21 114/44/21 113/45/21
f 113/45/22 114/44/22 116/46/22 115/47/22
f 115/47/23 116/46/23 118/48/23 117/49/23
f 117/49/24 118/48/24 120/50/24 119/51/24
f 119/51/25 120/50/25 122/52/25 121/53/25
f 121/53/26 122/52/26 124/54/26 123/55/26
f 123/55/27 124/54/27 126/56/27 125/57/27
f 125/57/28 126/56/28 128/58/28 127/59/28
f 127/59/29 128/58/29 130/60/29 129/61/29
f 129/61/30 130/60/30 132/62/30 131/63/30
f 131/63/31 132/62/31 134/64/31 133/65/31
f 76/66/1 74/67/1 136/68/1 134/69/1 132/70/1 130/71/1 128/72/1 126/73/1 124/74/1 122/75/1 120/76/1 118/77/1 116/78/1 114/79/1 112/80/1 110/81/1 108/82/1 106/83/1 104/84/1 102/85/1 100/86/1 98/87/1 96/88/1 94/89/1 92/90/1 90/91/1 88/92/1 86/93/1 84/94/1 82/95/1 80/96/1 78/97/1
f 133/65/32 134/64/32 136/98/32 135/99/32
f 135/99/33 136/98/33 74/5/33 73/100/33
f 73/101/34 75/102/34 77/103/34 79/104/34 81/105/34 83/106/34 85/107/34 87/108/34 89/109/34 91/110/34 93/111/34 95/112/34 97/113/34 99/114/34 101/115/34 103/116/34 105/117/34 107/118/34 109/119/34 111/120/34 113/121/34 115/122/34 117/123/34 119/124/34 121/125/34 123/126/34 125/127/34 127/128/34 129/129/34 131/130/34 133/131/34 135/132/34
f 137/1/34 139/5/34 140/4/34 141/3/34 138/2/34
f 145/3/2 147/7/2 148/6/2 146/4/2
f 147/7/3 149/9/3 150/8/3 148/6/3
f 149/9/4 151/11/4 152/10/4 150/8/4
f 151/11/5 153/13/5 154/12/5 152/10/5
f 153/13/6 155/15/6 156/14/6 154/12/6
f 155/15/7 157/17/7 158/16/7 156/14/7
f 157/17/8 159/19/8 160/18/8 158/16/8
f 159/19/9 161/21/9 162/20/9 160/18/9
f 161/21/10 163/23/10 164/22/10 162/20/10
f 163/23/11 165/25/11 166/24/11 164/22/11
f 165/25/12 167/27/12 168/26/12 166/24/12
f 167/27/13 169/29/13 170/28/13 168/26/13
f 169/29/14 171/31/14 172/30/14 170/28/14
f 171/31/15 173/33/15 174/32/15 172/30/15
f 173/33/16 175/35/16 176/34/16 174/32/16
f 175/35/17 177/37/17 178/36/17 176/34/17
f 177/37/18 179/39/18 180/38/18 178/36/18
f 179/39/19 181/41/19 182/40/19 180/38/19
f 181/41/20 183/43/20 184/42/20 182/40/20
f 183/43/21 185/45/21 186/44/21 184/42/21
f 185/45/22 187/47/22 188/46/22 186/44/22
f 187/47/23 189/49/23 190/48/23 188/46/23
f 189/49/24 191/51/24 192/50/24 190/48/24
f 191/51/25 193/53/25 194/52/25 192/50/25
f 193/53/26 195/55/26 196/54/26 194/52/26
f 195/55/27 197/57/27 198/56/27 196/54/27
f 197/57/28 199/59/28 200/58/28 198/56/28
f 199/59/29 201/61/29 202/60/29 200/58/29
f 201/61/30 203/63/30 204/62/30 202/60/30
f 203/63/31 205/65/31 206/64/31 204/62/31
f 148/66/34 150/97/34 152/96/34 154/95/34 156/94/34 158/93/34 160/92/34 162/91/34 164/90/34 166/89/34 168/88/34 170/87/34 172/86/34 174/85/34 176/84/34 178/83/34 180/82/34 182/81/34 184/80/34 186/79/34 188/78/34 190/77/34 192/76/34 194/75/34 196/74/34 198/73/34 200/72/34 202/71/34 204/70/34 206/69/34 208/68/34 146/67/34
f 205/65/32 207/99/32 208/98/32 206/64/32
f 207/99/33 145/100/33 146/5/33 208/98/33
f 145/101/1 207/132/1 205/131/1 203/130/1 201/129/1 199/128/1 197/127/1 195/126/1 193/125/1 191/124/1 189/123/1 187/122/1 185/121/1 183/120/1 181/119/1 179/118/1 177/117/1 175/116/1 173/115/1 171/114/1 169/113/1 167/112/1 165/111/1 163/110/1 161/109/1 159/108/1 157/107/1 155/106/1 153/105/1 151/104/1 149/103/1 147/102/1
f 209/3/2 211/7/2 212/6/2 210/4/2
f 211/7/3 213/9/3 214/8/3 212/6/3
f 213/9/4 215/11/4 216/10/4 214/8/4
f 215/11/5 217/13/5 218/12/5 216/10/5
f 217/13/6 219/15/6 220/14/6 218/12/6
f 219/15/7 221/17/7 222/16/7 220/14/7
f 221/17/8 223/19/8 224/18/8 222/16/8
f 223/19/9 225/21/9 226/20/9 224/18/9
f 225/21/10 227/23/10 228/22/10 226/20/10
f 227/23/11 229/25/11 230/24/11 228/22/11
f 229/25/12 231/27/12 232/26/12 230/24/12
f 231/27/13 233/29/13 234/28/13 232/26/13
f 233/29/14 235/31/14 236/30/14 234/28/14
f 235/31/15 237/33/15 238/32/15 236/30/15
f 237/33/16 239/35/16 240/34/16 238/32/16
f 239/35/17 241/37/17 242/36/17 240/34/17
f 241/37/18 243/39/18 244/38/18 242/36/18
f 243/39/19 245/41/19 246/40/19 244/38/19
f 245/41/20 247/43/20 248/42/20 246/40/20
f 247/43/21 249/45/21 250/44/21 248/42/21
f 249/45/22 251/47/22 252/46/22 250/44/22
f 251/47/23 253/49/23 254/48/23 252/46/23
f 253/49/24 255/51/24 256/50/24 254/48/24
f 255/51/25 257/53/25 258/52/25 256/50/25
f 257/53/26 259/55/26 260/54/26 258/52/26
f 259/55/27 261/57/27 262/56/27 260/54/27
f 261/57/28 263/59/28 264/58/28 262/56/28
f 263/59/29 265/61/29 266/60/29 264/58/29
f 265/61/30 267/63/30 268/62/30 266/60/30
f 267/63/31 269/65/31 270/64/31 268/62/31
f 212/66/34 214/97/34 216/96/34 218/95/34 220/94/34 222/93/34 224/92/34 226/91/34 228/90/34 230/89/34 232/88/34 234/87/34 236/86/34 238/85/34 240/84/34 242/83/34 244/82/34 246/81/34 248/80/34 250/79/34 252/78/34 254/77/34 256/76/34 258/75/34 260/74/34 262/73/34 264/72/34 266/71/34 268/70/34 270/69/34 272/68/34 210/67/34
f 269/65/32 271/99/32 272/98/32 270/64/32
f 271/99/33 209/100/33 210/5/33 272/98/33
f 209/101/1 271/132/1 269/131/1 267/130/1 265/129/1 263/128/1 261/127/1 259/126/1 257/125/1 255/124/1 253/123/1 251/122/1 249/121/1 247/120/1 245/119/1 243/118/1 241/117/1 239/116/1 237/115/1 235/114/1 233/113/1 231/112/1 229/111/1 227/110/1 225/109/1 223/108/1 221/107/1 219/106/1 217/105/1 215/104/1 213/103/1 211/102/1
f 1/1/35 3/5/35 139/5/35 137/1/35
f 2/2/36 1/1/36 137/1/36 138/2/36
f 4/4/37 5/3/37 141/3/37 140/4/37
f 3/5/38 4/4/38 140/4/38 139/5/38
f 5/3/37 2/2/37 138/2/37 141/3/37
